# xmcd CD Database Entry
#
# Track frame offsets:
# 150
# 13647
# 30677
# 54155
# 69230
# 85057
# 98332
# 114457
# 129682
# 140635
# 154810
#
# Disc length: 2262 seconds
#
# Revision: 4
# Processed by: cddbd v1.4PL0 Copyright (c) Steve Scherf et al.
# Submitted via: tcd 2.0b
#
DISCID=8308d40b
DTITLE=Ezequiel Pena - Yo vendo unos ojos verdes
DYEAR=1900
DGENRE=
TTITLE0=Yo vendo unos ojos verdes
TTITLE1=Boton de rosa
TTITLE2=Manuel juarez
TTITLE3=De buena gana
TTITLE4=Tu castigo
TTITLE5=Mujeres
TTITLE6=Prenda de mi alma
TTITLE7=La madrugada
TTITLE8=Ven y ven
TTITLE9=Potro bandido
TTITLE10=Prefiero Partir
EXTD=
EXTT0=
EXTT1=
EXTT2=
EXTT3=
EXTT4=
EXTT5=
EXTT6=
EXTT7=
EXTT8=
EXTT9=
EXTT10=
PLAYORDER=
